<?xml version="1.0" encoding="UTF-8"?>
<svg xmlns="http://www.w3.org/2000/svg" width="1200" height="560" viewBox="0 0 1200 560">
  <defs><marker id="ab" markerWidth="10" markerHeight="10" refX="9" refY="5" orient="auto" markerUnits="userSpaceOnUse"><path d="M0 0L10 5L0 10Z" fill="#2D5F82"/></marker><marker id="ai" markerWidth="10" markerHeight="10" refX="9" refY="5" orient="auto" markerUnits="userSpaceOnUse"><path d="M0 0L10 5L0 10Z" fill="#27323A"/></marker><marker id="aa" markerWidth="10" markerHeight="10" refX="9" refY="5" orient="auto" markerUnits="userSpaceOnUse"><path d="M0 0L10 5L0 10Z" fill="#A66A21"/></marker></defs>
  <rect width="1200" height="560" fill="#FFFFFF"/>
  <g font-family="Helvetica,Arial,sans-serif" fill="#27323A">
    <g fill="#FFFFFF"><rect x="30" y="38" width="180" height="54" stroke="#27323A" stroke-width="1.5"/><rect x="320" y="28" width="240" height="62" stroke="#A66A21" stroke-width="1.5" stroke-dasharray="6 4"/></g>
    <g text-anchor="middle"><text x="120" y="62" font-size="13" font-weight="700">SIGNED ENVELOPE</text><text x="120" y="80" font-size="12">exact bytes</text><text x="440" y="53" font-size="12" font-weight="700">DELIVER PRE-GATE</text><text x="440" y="73" font-size="12">peer quota · outside pipeline</text></g>
    <rect x="30" y="135" width="520" height="180" fill="#FFFFFF" stroke="#2D5F82" stroke-width="1.8"/><text x="290" y="168" text-anchor="middle" font-size="14" font-weight="700" fill="#2D5F82">STAGES 1–12 · READ-ONLY VALIDATION</text>
    <g fill="#FFFFFF" stroke="#2D5F82" stroke-width="1.2"><rect x="50" y="205" width="82" height="62"/><rect x="148" y="205" width="82" height="62"/><rect x="246" y="205" width="82" height="62"/><rect x="344" y="205" width="82" height="62"/><rect x="442" y="205" width="82" height="62"/></g>
    <g text-anchor="middle" font-size="12"><text x="91" y="230" font-weight="700">1–2</text><text x="91" y="249">BYTES</text><text x="189" y="230" font-weight="700">3–5</text><text x="189" y="249">ROUTING</text><text x="287" y="230" font-weight="700">6–7</text><text x="287" y="249">POLICY</text><text x="385" y="230" font-weight="700">8–10</text><text x="385" y="249">AUTH</text><text x="483" y="230" font-weight="700">11–12</text><text x="483" y="249">REPLAY</text></g>
    <g fill="none" stroke="#2D5F82" stroke-width="1.4" marker-end="url(#ab)"><path d="M132 236H146"/><path d="M230 236H244"/><path d="M328 236H342"/><path d="M426 236H440"/></g><path d="M120 92V180H75V201" fill="none" stroke="#27323A" stroke-width="1.8" marker-end="url(#ai)"/><path d="M540 90V190H112V201" fill="none" stroke="#A66A21" stroke-width="1.4" stroke-dasharray="6 4" marker-end="url(#aa)"/>
    <rect x="350" y="340" width="190" height="38" fill="#FFFFFF" stroke="#27323A" stroke-width="1.2" stroke-dasharray="5 4"/><text x="445" y="364" text-anchor="middle" font-size="11">duplicate → prior receipt</text><path d="M483 267V338" fill="none" stroke="#27323A" stroke-width="1.2" stroke-dasharray="5 4" marker-end="url(#ai)"/>
    <line x1="590" y1="145" x2="590" y2="315" stroke="#A66A21" stroke-width="1.8" stroke-dasharray="6 4"/><text x="590" y="128" text-anchor="middle" font-size="11" font-weight="700" fill="#A66A21">FIRST STATE CHANGE</text>
    <g fill="#FFFFFF"><rect x="620" y="185" width="130" height="80" stroke="#A66A21" stroke-width="2"/><rect x="785" y="185" width="145" height="80" stroke="#2D5F82" stroke-width="1.5"/><rect x="965" y="170" width="190" height="110" stroke="#2D5F82" stroke-width="2"/><rect x="965" y="350" width="190" height="72" stroke="#27323A" stroke-width="1.5"/><rect x="965" y="470" width="190" height="44" stroke="#A66A21" stroke-width="1.5"/></g>
    <g text-anchor="middle" font-size="12"><text x="685" y="218" font-weight="700">13 · ANTI-ABUSE</text><text x="685" y="241">local origin</text><text x="857" y="218" font-weight="700">14–15 · SEMANTICS</text><text x="857" y="241">authorize · validate</text><text x="1060" y="210" font-weight="700">16–18 · ATOMIC COMMIT</text><text x="1060" y="239">store · witness · receipt</text><text x="1060" y="379" font-weight="700">19 · FANOUT</text><text x="1060" y="401">outbox · events</text><text x="1060" y="497" font-weight="700">RETURN SIGNED RECEIPT</text></g>
    <g fill="none" stroke="#27323A" stroke-width="2" marker-end="url(#ai)"><path d="M524 236H618"/><path d="M750 225H783"/><path d="M930 225H963"/><path d="M1060 280V348"/></g><path d="M1060 422V468" fill="none" stroke="#A66A21" stroke-width="2" marker-end="url(#aa)"/>
  </g>
</svg>
